PathFileType	3	(X/Y/Z)	results
DataRate	CameraRate	NumFrames	NumMarkers	Units	OrigDataRate	OrigDataStartFrame	OrigNumFrames
30.0	30.0	4	85	mm	30.0	109	173
Frame#	Time	head			nose			neck			shoulder_r			elbow_r			wrist_r			shoulder_l			elbow_l			wrist_l			hip_r			knee_r			ankle_r			hip_l			knee_l			ankle_l			heel_r			heel_l			mtoe_r			ltoe_r			mtoe_l			ltoe_l			asis_l			asis_r			psi_r			psi_l			mhnd_r			lhnd_r			mhnd_l			lhnd_l			l_lat_knee			r_med_wrist			l_lat_ankle			r_med_ankle			r_lat_knee			xiphoid			l_med_ankle			r_med_knee			l_med_elbow			navel			r_lat_elbow			r_lat_wrist			l_med_wrist			l_lat_elbow			l_med_knee			r_med_elbow			r_lat_ankle			l_lat_wrist			chin			T10			r_eye			l_eye			l_ear			r_ear			spinal_cord_8			spinal_cord_12			spinal_cord_27			spinal_cord_33			up_arm_r_0			up_arm_r_5			up_arm_l_0			up_arm_l_5			front_torso_11			front_torso_7			front_torso_4			front_torso_1			front_torso_10			thigh_r_2			thigh_r_3			thigh_l_1			thigh_l_5			shank_l_0			shank_l_4			shank_r_1			shank_r_2			foot_r_1			foot_r_3			foot_r_5			foot_r_6			foot_r_7			foot_l_1			foot_l_7			foot_l_0			foot_l_4			foot_l_5			foot_l_6			
		X1	Y1	Z1	X2	Y2	Z2	X3	Y3	Z3	X4	Y4	Z4	X5	Y5	Z5	X6	Y6	Z6	X7	Y7	Z7	X8	Y8	Z8	X9	Y9	Z9	X10	Y10	Z10	X11	Y11	Z11	X12	Y12	Z12	X13	Y13	Z13	X14	Y14	Z14	X15	Y15	Z15	X16	Y16	Z16	X17	Y17	Z17	X18	Y18	Z18	X19	Y19	Z19	X20	Y20	Z20	X21	Y21	Z21	X22	Y22	Z22	X23	Y23	Z23	X24	Y24	Z24	X25	Y25	Z25	X26	Y26	Z26	X27	Y27	Z27	X28	Y28	Z28	X29	Y29	Z29	X30	Y30	Z30	X31	Y31	Z31	X32	Y32	Z32	X33	Y33	Z33	X34	Y34	Z34	X35	Y35	Z35	X36	Y36	Z36	X37	Y37	Z37	X38	Y38	Z38	X39	Y39	Z39	X40	Y40	Z40	X41	Y41	Z41	X42	Y42	Z42	X43	Y43	Z43	X44	Y44	Z44	X45	Y45	Z45	X46	Y46	Z46	X47	Y47	Z47	X48	Y48	Z48	X49	Y49	Z49	X50	Y50	Z50	X51	Y51	Z51	X52	Y52	Z52	X53	Y53	Z53	X54	Y54	Z54	X55	Y55	Z55	X56	Y56	Z56	X57	Y57	Z57	X58	Y58	Z58	X59	Y59	Z59	X60	Y60	Z60	X61	Y61	Z61	X62	Y62	Z62	X63	Y63	Z63	X64	Y64	Z64	X65	Y65	Z65	X66	Y66	Z66	X67	Y67	Z67	X68	Y68	Z68	X69	Y69	Z69	X70	Y70	Z70	X71	Y71	Z71	X72	Y72	Z72	X73	Y73	Z73	X74	Y74	Z74	X75	Y75	Z75	X76	Y76	Z76	X77	Y77	Z77	X78	Y78	Z78	X79	Y79	Z79	X80	Y80	Z80	X81	Y81	Z81	X82	Y82	Z82	X83	Y83	Z83	X84	Y84	Z84	X85	Y85	Z85	
109	3.6333333333333333	-207.9137253578369	1719.4887821661612	-265.7028829551763	-158.66786548663939	1557.7761434305266	-357.87761129494334	-211.64666946982155	1448.2358123320228	-232.8903994344241	10.626772737154678	1446.657885075198	-252.89025689900524	255.84863260860513	1343.8678854570317	-261.3146600427043	479.2669858009306	1367.117474151031	-269.51425146724574	-378.76118210578056	1431.7694124770642	-239.7260793789192	-619.6247549376486	1305.403630465698	-229.60036816367193	-790.4320538852874	1376.2221285600401	-387.1896982022381	-81.84146033568857	947.5368276749587	-191.55201996212907	-41.282271426824565	573.3626205667812	-234.62113343983197	5.561257912256264	197.97207001435325	-97.830116332039	-254.40983966081143	952.3426636510663	-157.46866162522704	-299.6599108674434	570.9260849854941	-199.66758269446137	-341.9342534844075	192.53718144858257	-77.43547362911666	3.910308217315206	150.27093660798434	-65.72970855993313	-351.72976989867567	142.77453035657834	-34.38737587412716	35.52422406493362	50.233261701316174	-268.34415856003613	92.53343328915645	75.63054182849166	-202.96089267455977	-352.51358923179197	50.375600007377635	-230.45238092274627	-426.923177558309	70.08816653133414	-176.93356586711695	-302.77857359494385	997.4849466445417	-206.88195205283088	-49.3565249156212	988.6720071008779	-252.76151333108487	-107.30036587947845	1041.9493697425262	-106.28866459625691	-194.540736579929	1042.590099272944	-94.93303251234266	548.7993771943584	1343.8989366887315	-266.71535173953396	561.2964941465789	1395.7441239194773	-271.70943660443885	-858.4301191688697	1375.813397549198	-421.6964056284855	-837.6954395875974	1415.84264751533	-450.3927387307884	-348.41449524488115	572.5826338585551	-198.6146879469492	473.56515003266844	1342.0200920756358	-257.79491350282274	-397.5735772572546	184.8709619176392	-69.8270917096929	-27.08401869518459	178.96183475154803	-110.00159257644695	0.009772737167040857	569.0422686075932	-227.47364350450223	-202.95579381448732	1268.6674332583354	-311.1622227856371	-312.43403200163	173.8046265071621	-86.66649633045728	-80.34508856803366	566.215938998067	-243.80870146819356	-595.6157383980077	1278.3370618782571	-239.18155097172823	-180.47361156408198	1048.3271753094098	-304.46797536368393	257.57041716406223	1362.178857503864	-225.03629467715544	468.9744869979762	1390.8601970025177	-286.9177892745977	-805.9614962874696	1361.6669699790098	-360.93230626548115	-624.1866107580482	1340.3265240073713	-207.7955248146086	-255.8926410312406	568.7626403966808	-219.70523019430698	242.70384121143357	1331.0501685144495	-294.0057981195009	56.30400655270527	186.50584730698444	-91.14222627985383	-764.9896077004423	1395.2714502046445	-394.1370987270121	-157.10170695620087	1490.6906787882158	-335.3871375254438	-175.517391015789	1302.1199443047208	-118.28436216134494	-133.51649738318704	1589.715353170446	-350.5645916900715	-192.4077984000249	1581.8402542308468	-369.97232192716194	-265.9976869258917	1575.7804173303998	-297.00859082851497	-120.385230105199	1592.6302833303805	-246.4316058560598	-211.98514872645606	1512.7860053050076	-190.05122918421202	-190.48221987684394	1401.661397917405	-127.52207920859892	-146.72255886657868	1150.5060647338253	-121.52171168641743	-176.34376545746824	1291.0224769422334	-130.25703628194336	149.56345577163634	1438.9199190592792	-263.4348147643575	144.58821281309636	1353.7532811537305	-235.20559735619707	-437.6815759458455	1427.5230487213205	-218.6532361629585	-532.3519969236935	1302.328056574661	-230.9494146339824	-129.2487222103228	1085.9121539254322	-275.83048429679	-195.49655296438146	1178.617748712471	-333.3851194270275	-274.91796092711974	1305.972209635666	-310.68874424700334	-253.23510598071763	1105.9065436642438	-264.04281212919165	-134.94492819839706	1362.1582828920466	-346.0774319824758	-76.79913799982877	743.5121848424378	-218.2394696908495	17.843186443901203	716.8897323131172	-204.1117586429008	-240.0615277291469	676.0016942786831	-188.7118364467655	-365.2829094972597	861.5515987543405	-182.83910862905583	-400.97065346393896	288.32972522519896	-117.58074513868813	-266.52414436430547	417.93802176998946	-156.26472184054435	38.354441499382325	422.01297258207666	-170.10470962831874	-57.193250922984205	369.4945670084337	-171.22653694421612	56.14573940752503	52.69426343406794	-245.70595610394201	77.76759260253951	63.01309096045828	-227.94631512682847	10.59768766719434	93.19392820125302	-199.08512936366674	45.420830459692084	107.59524211826704	-184.76353831244305	74.84414085993086	102.40750614515962	-164.00181309010705	-399.47812868831255	55.35550577234637	-203.14314130058554	-409.01052802332435	125.49084699364194	-124.0171689623784	-413.274611953771	60.146323246840396	-196.34230674567598	-382.504155347006	49.70167511389989	-210.92439104090627	-384.83708923790357	87.42185905735269	-166.54172661675136	-353.2357616552205	106.24475368274081	-145.43429161481242	
110	3.6666666666666665	-203.59945705854423	1709.925559230013	-261.20823391154744	-148.07614974975834	1553.3068587681494	-358.4710623555961	-208.83870287326982	1439.9744664689292	-237.9761007314307	17.662217442977763	1430.1666437983035	-255.49507476132777	249.37527983298295	1300.8630823082744	-236.51717043858335	463.995495972217	1237.7138233327912	-214.74858912661063	-365.68811274907966	1441.3959615387898	-245.01909656721523	-573.3390991387863	1265.4748341616673	-240.66864808052745	-777.4145788892974	1251.8345002785431	-371.78664777655	-83.09880133002729	938.085024309733	-188.99125315323144	-20.498797636468723	565.8612532727009	-218.36125203981456	52.92943414227537	194.73788361001843	-81.61366224590377	-254.99242717510913	943.7682423626236	-151.77701737920657	-317.9291585487319	564.2227904389575	-185.6073283332749	-385.15613058653827	188.04443627023	-67.80940417643602	53.964382821884016	147.72949844593592	-49.670035745986944	-400.6273785718368	140.67607399798098	-25.490224539290285	100.44256179560493	44.048655326976785	-247.53274843896818	152.8927967758873	74.94107845990328	-180.7145302977328	-396.9150412600436	40.191322189851704	-217.50245361046322	-472.37959230995773	71.47916117281427	-171.50453685923512	-304.7134625563322	985.3692356000747	-202.92591188742975	-52.1846653098281	975.5331616154789	-253.3024442523503	-107.66548955401254	1037.47414522002	-109.3043394610782	-194.66595624390183	1038.1933867862297	-96.24123563314777	520.5940503850301	1204.1661804253247	-182.30098415804983	550.0177015059656	1226.9316389311361	-220.8370050797806	-845.0437172495725	1224.0740493432704	-393.4724451856209	-843.392054257869	1263.7199422653973	-429.2666138095258	-366.63109071826136	568.1419486597537	-186.26248189544353	451.1386522984901	1233.5140037126666	-189.91322147483746	-441.5064466299944	182.13913826610272	-66.33900133599043	22.588459141573406	173.08805602309923	-95.25031010947953	21.144256186665476	564.1123130940297	-211.92408687725973	-199.41235623943209	1260.1365214714897	-315.5407185785402	-355.4208877679665	168.35865047581427	-73.69741185780758	-59.02999710862441	555.8634026478817	-227.2789095109149	-543.596198837542	1244.154638663953	-248.51977665610556	-178.58754630209435	1039.6706461799763	-307.71666187459624	261.34068906812166	1337.7574328828216	-224.26923549143368	460.8804945498602	1241.9437528045949	-245.48846568826133	-783.3372583798389	1237.2735968665615	-341.86393377127695	-586.3833636014349	1298.9655765744583	-220.07526194334957	-273.87478441539145	559.2412087875636	-204.6129941564754	227.51003175713288	1272.6172529641626	-247.91339650234406	104.15142143977229	187.63548495530802	-72.84481815118313	-761.2644679216331	1276.7879177282866	-385.0139668681467	-145.47484082891492	1485.4100909680928	-338.67217492732607	-176.55626095805147	1293.9383100091536	-122.12705938509136	-123.90308292592964	1585.4918250660317	-349.1987661587506	-182.06161989440994	1577.0608440542305	-370.4911509144447	-257.358004094177	1566.317958784746	-299.8445351789904	-113.56140486389552	1584.4390272503394	-244.71648513229977	-209.80825725121906	1504.643625496719	-195.3264076055708	-190.61617492620118	1393.5513901050092	-131.99293995587064	-148.71114366288398	1142.1275003430317	-124.2528016840434	-177.15921552110197	1282.8135520038184	-134.08773692840018	148.1357160352826	1389.5021606309413	-283.7356782442284	149.83153102185676	1347.7918310477178	-204.15948464527116	-423.1348909560359	1424.7363306126838	-226.1502463726322	-487.53038184770236	1281.6009912197703	-238.51819047879286	-127.83908573855607	1076.9923523183038	-277.91045777488756	-192.00896228142173	1169.978046825827	-337.33710138563475	-271.1112570782374	1297.9212949851662	-316.95582531054157	-251.9429321708563	1097.8452222576748	-269.2651519608853	-129.92606882007016	1353.075122913737	-348.9945802835065	-65.97618756410465	733.8802976995348	-208.2512011899366	30.218009728313817	713.5293561885172	-194.17880405494464	-253.57372383510946	666.3402002808477	-175.81885860219884	-369.51655957728667	857.9019228930485	-178.05843551999368	-436.41099379755326	285.3688187176523	-114.43616010866253	-294.5497904694737	410.5472671302588	-138.44406378873398	69.18488068765514	421.39297210840874	-151.3027364590029	-21.326700761253058	360.8370563080443	-156.7283823155184	119.88029721894291	48.48448663993717	-224.15991212901818	140.03152237122478	60.68029029514693	-205.86843644202852	69.92595417338755	87.32905278588883	-180.75469768005206	103.13149669884821	104.3419281348461	-165.48672123678276	131.9058158599456	101.65663470554718	-143.3842148255831	-444.96390931938004	52.24629645914117	-194.64975420503433	-451.97792559610076	126.58269365568081	-119.1801851637009	-458.5498196397456	59.02981122304762	-189.26893629080487	-428.2670035364473	44.1656002262056	-200.6950089799719	-429.4307907762073	83.88022383035359	-158.0397627622347	-397.54551892439815	99.55877562265842	-134.8884878068498	
111	3.6999999999999997	-197.87567987266095	1686.5444912070764	-261.3597921481927	-137.31777143259094	1533.2765068245126	-360.9287505362144	-202.24801767181475	1414.635040552474	-244.1835618994972	29.814416588517087	1399.7431272945037	-267.8502769747544	224.23403373995535	1235.542476650004	-190.32819016554484	411.32816364929334	1111.925711447603	-174.89384108621843	-352.259025832851	1416.890294843737	-254.94039873376755	-538.2723128255602	1218.2148499743753	-251.30360393332356	-741.28692139321	1119.5218484789234	-341.134278828224	-85.46774189661522	911.2566359307391	-185.17541012333015	-1.6870340572843894	542.5775672921322	-201.8957168998979	93.48934665079526	177.57521632364555	-62.11408581351729	-257.4871903386966	919.748304064816	-149.09469716151057	-332.8419027677845	542.5433531459776	-187.48990243133252	-423.65146960352916	175.66766834203895	-56.868980214137856	96.9691934736752	130.48898083121455	-30.225317223527366	-444.5094533983476	130.08578333393945	-13.861698639610575	150.6510644741223	31.056380379005155	-228.44490787490417	200.67187408601785	61.13834214583566	-159.43014558371195	-429.44858246651904	25.94765835199547	-203.35598351163054	-506.82389170785115	62.133926550315906	-164.71337500069737	-306.67937734656323	959.3810782066678	-202.27745149353697	-53.99595072243607	945.6107095975765	-250.92721676706532	-109.70542320846823	1014.2400406986594	-110.08428623756991	-196.75804936193236	1016.1273923496124	-97.49375893172393	470.2299208136105	1084.17684023444	-141.096342305777	481.84958515234734	1063.1187618772174	-188.9563777351683	-801.1395507062799	1072.3358552076802	-343.5346129859291	-812.115134270732	1097.8223057000232	-389.2043483741327	-380.9477509854801	548.7474353640014	-192.26177222549	410.8652731698126	1129.7668550139047	-152.95730240889768	-480.07628430224526	171.56011763639373	-60.29842049561868	65.64755348918035	153.70407005120208	-77.28810613369528	40.013153103367436	543.2923399062996	-195.41945611640264	-190.5241120281009	1234.2165562023247	-320.0685601190635	-394.21648943628827	154.79569349714868	-58.94890110381945	-39.422040297239924	530.0125076835136	-211.0854096034917	-505.61022490681904	1199.9895754951729	-252.66685638496762	-172.53265828779038	1013.6000389052883	-309.8337846783087	246.1843306822374	1262.0517868447396	-212.00345187322569	395.1377409069908	1097.5976184167623	-197.36852706285356	-741.1716313155011	1114.3730663326478	-307.7285367384233	-557.493319138367	1252.0416632105848	-237.08495990753875	-287.3246930024463	535.8831346925897	-201.69202204230345	195.17061216477427	1219.118818836439	-173.25860002349012	144.6056689646139	174.4299829644479	-50.788990832066645	-732.9383077795688	1141.8091571031705	-363.31619989150505	-133.8121273268871	1465.0047459574985	-342.61452227742274	-177.93137760030186	1269.0135835726087	-125.89236310130674	-113.97113670388609	1565.6917249870835	-350.4228964374497	-171.50048993333962	1556.6529592480636	-373.12833064681547	-248.02540179499772	1542.8699792825805	-304.35430429833315	-105.78318905585361	1562.4380382079607	-245.79509529202667	-204.85568202681483	1479.5820402771353	-202.02761567408416	-190.35717233542746	1368.7027596211908	-137.09282337610264	-151.64689654633665	1116.910212605326	-125.60624232316633	-177.99813073695773	1257.8195053800475	-137.80327237033234	129.31670780133862	1302.0556319728835	-273.41022413733157	155.32716950453093	1327.245396386572	-191.16711122884433	-409.540612077583	1395.5719512489043	-240.86711765653075	-455.77177583856127	1245.0728985982048	-241.29760605817535	-123.09387796629787	1050.5803095324932	-277.50744269317136	-182.9088711569835	1143.8483344959147	-340.90208377924944	-261.62717401213695	1272.7370326569487	-325.6319662914262	-247.25333467822023	1072.7808459693258	-275.8004899887706	-118.31403923537502	1326.2099068535952	-350.2018882386676	-56.62167524798758	707.8545182613963	-197.79217821302055	40.440095308795264	693.4671480123773	-182.38007102605235	-265.3840890446746	642.3002514543667	-171.6015511260919	-372.4974522138866	838.4407945294267	-185.71768472077864	-467.01854214780406	271.7679816750952	-113.0577476551791	-319.24996927607555	391.0770407964371	-130.39042427544584	95.50816779049705	405.1689986857565	-130.60007226764986	10.373749156425978	337.7901715635299	-140.65130936739672	169.30048983257285	35.22013153955289	-204.38968505180267	188.74708145193514	47.24620611619719	-185.24311383372665	117.6304811304419	72.76550087048005	-161.8584636718921	150.17239339490007	89.78500996594492	-145.2296530396414	178.26267564155705	86.93903158174088	-122.28342276137901	-478.5830550423649	41.01319360487864	-185.05037648074435	-488.09122491010396	117.02886373422623	-111.55231647689918	-492.1929617626533	48.62204335394192	-180.99796019259335	-461.8925455007871	31.92844635525108	-189.4689371377798	-464.60911628171056	72.44444035612447	-147.64609371498295	-434.0705904739688	86.80817771956997	-121.96437706925543	
112	3.7333333333333334	-192.61792152695133	1649.9337526324548	-262.6529739485565	-127.34838993384737	1500.7578502986628	-365.40875818633543	-193.1840431767837	1374.1166925794487	-249.0595131853106	27.106506792032313	1345.644820731826	-266.04998928122143	182.2294226767866	1157.2991673185206	-160.06267420828516	340.71771130893535	998.2909866465552	-149.04459529295167	-350.0371308674887	1369.673044572412	-258.77636833298305	-507.6425146000496	1147.7777483771722	-261.7966585889569	-684.6966886674671	983.2687398301407	-286.56348196838593	-87.32442370500205	870.7913043937433	-180.3633444896171	17.109665234860543	507.18278909085325	-195.82916793014775	122.47341647518172	151.30182239532513	-40.67962228207075	-259.20962199730803	880.4289446305269	-143.9324315648579	-341.07420451023415	506.599635780426	-207.0976195068673	-450.80457359765245	158.35291274754186	-44.034941842965246	127.85313649102814	103.12896827043564	-7.650009878448202	-474.90141887704516	112.07270338053014	1.834884404723392	181.26961377856122	18.98085637160779	-212.89466058303907	231.36777241405275	43.53118906739163	-141.77856607596024	-447.9405141844638	18.079748712724054	-191.60269466953966	-528.4970773364263	47.638904799616064	-153.8332347393733	-308.5374631164736	918.7315386058768	-197.95750715405518	-56.037870338766254	903.390975314056	-247.08956968242836	-111.18629864053884	975.7158896299431	-107.88461604487232	-198.19314486795352	978.0371070805995	-95.05247462521135	389.0501321266258	954.6469110492129	-115.26798300548307	402.51175941583534	939.2369436963118	-164.7690915956486	-736.8480487739082	932.493958471371	-263.8308178533373	-746.524031060349	927.5928953593171	-316.15769690102735	-387.97558484492197	515.5998723337779	-215.11266618498829	340.7647563823086	1012.3246127856285	-124.49286369127505	-507.40030393738357	157.12337863145325	-46.828559640364254	96.60352017264952	125.67952034139707	-56.47500345015957	58.31723558547785	510.25462432878453	-187.42932240633291	-177.91174176098593	1192.6578006953305	-321.7660450733358	-422.59108983379235	135.76404640182938	-44.38978462628057	-19.64445896985764	492.7750916187327	-206.08853223461014	-475.3682195044577	1135.739685508027	-247.15814798364153	-163.41068153690574	971.9970699392678	-307.67165275355467	210.9433836620278	1181.7544169466469	-175.28848266352364	325.11500455493683	991.029903853004	-175.0516667704781	-687.2883319860854	996.6993711670607	-255.6544480015518	-533.4212651020081	1180.0687461650894	-264.7322504789953	-294.28466125225	500.0541031829113	-215.30430993413296	148.6487709726213	1143.8411539744852	-150.21322624371322	173.04699309002913	150.99068634827933	-26.778355474499804	-677.2990916506226	991.4748501233956	-317.1640768853358	-123.74954508094548	1431.9258942242461	-349.348124080295	-179.67233703060617	1229.700818599726	-127.60497613497407	-104.67885947913084	1532.9960626781767	-353.0404622825665	-161.35323198627776	1524.237630189286	-377.90344426338777	-239.91191277484003	1507.3955185003163	-312.17083196962426	-99.83370100097763	1526.1883027708668	-248.3753554836159	-198.19992601773706	1439.6029673526964	-207.96906144245543	-190.0092183077664	1329.3769207595706	-140.85661943284862	-155.3215547596628	1077.3287387706764	-123.58254399141016	-178.96998614675553	1218.3623477416204	-139.3577368324965	114.44812903596171	1237.1999769419501	-256.7967417188006	125.3165070530563	1256.4277402664507	-169.69238220147759	-406.55579498452727	1342.4840287643365	-259.10372506884903	-436.98421269557474	1190.2418888344082	-232.95199669624506	-116.12530899935084	1008.8187882156927	-272.10508968324353	-169.82777743070915	1101.9605344019503	-340.9258598850188	-247.91784822006622	1231.8976805500295	-333.15906510598427	-239.77948753536305	1032.4224200771698	-280.096390587964	-102.5190120957293	1283.4617725687956	-347.3719749718296	-46.98976815502254	669.3364842454083	-192.7233959120744	50.07759819502156	660.1490986832559	-173.77517407884687	-272.60181557148087	604.4596500641377	-178.68784826049702	-372.0081436860497	804.3952835434112	-195.65177560301828	-489.31848951875645	251.39194028527305	-108.32777523496026	-335.34426482233306	360.24514207935664	-136.85045014636677	117.05241799060931	376.7443508899705	-115.77699154793063	35.850344319986185	305.0039285337803	-127.95639955939131	199.92552757138787	21.231166124595553	-188.5906563539687	219.40546409642067	31.69370675734108	-168.5792870547188	148.36515655794287	55.57988150364774	-143.31325313441846	180.95723216440962	71.17128105812067	-125.42968653497599	209.03157693094948	66.48662177966561	-102.76742347460413	-498.42362024965814	29.25385375938934	-174.1998967637985	-514.7527982951057	101.00644378334856	-97.67750792896068	-512.5912692328501	35.822577460705176	-170.24062606882543	-481.0803242710669	21.41798738043922	-178.4939277740773	-487.51434998173886	59.679907059587904	-134.98870309617055	-458.6807048523846	74.64719814623749	-107.72938935738485	
